<?xml version="1.0" standalone="no"?>
<!DOCTYPE svg PUBLIC "-//W3C//DTD SVG 20010904//EN"
 "http://www.w3.org/TR/2001/REC-SVG-20010904/DTD/svg10.dtd">
<svg version="1.0" xmlns="http://www.w3.org/2000/svg"
 width="512.000000pt" height="512.000000pt" viewBox="0 0 512.000000 512.000000"
 preserveAspectRatio="xMidYMid meet">

<g transform="translate(0.000000,512.000000) scale(0.100000,-0.100000)"
fill="#000000" stroke="none">
<path d="M1 4068 c0 -900 2 -1047 14 -1010 28 91 98 158 208 199 26 9 47 20
47 24 0 4 -16 33 -35 65 -44 74 -58 124 -53 194 9 127 103 238 271 319 320
155 765 141 1162 -35 7 -3 9 53 7 159 -3 131 0 188 17 285 37 218 126 443 231
587 93 128 226 230 332 255 18 4 -470 8 -1084 9 l-1118 1 1 -1052z"/>
<path d="M2376 5099 c52 -20 121 -77 162 -134 l21 -30 18 25 c43 60 89 101
145 130 l61 30 -229 -1 -229 0 51 -20z"/>
<path d="M2945 5102 c79 -27 145 -70 216 -141 145 -145 252 -360 311 -622 20
-90 23 -131 23 -310 l0 -207 50 20 c240 96 456 136 675 125 265 -14 464 -81
599 -203 138 -125 160 -280 61 -434 -33 -52 -36 -60 -17 -60 22 0 131 -56 165
-85 32 -27 67 -84 83 -135 4 -14 8 446 8 1023 l1 1047 -1112 0 c-1069 -1
-1111 -1 -1063 -18z"/>
<path d="M1 1458 l-1 -1458 2560 0 2560 0 -1 1448 c0 1395 -1 1445 -18 1387
-38 -131 -118 -254 -247 -382 -186 -183 -434 -321 -691 -383 l-92 -23 58 -71
c73 -89 157 -218 206 -315 49 -98 111 -285 130 -395 31 -181 14 -401 -41 -508
-83 -166 -215 -228 -387 -183 -32 8 -59 15 -61 15 -2 0 -6 -33 -9 -74 -7 -96
-38 -166 -94 -216 -176 -155 -514 -104 -848 128 -149 104 -338 308 -438 475
l-33 55 -43 -72 c-254 -430 -758 -735 -1100 -662 -167 35 -244 126 -258 303
l-6 71 -41 -14 c-263 -93 -465 113 -466 476 0 301 126 635 340 900 l68 85 -31
8 c-110 28 -291 93 -370 133 -335 169 -587 441 -637 689 -4 22 -8 -616 -9
-1417z"/>
</g>
</svg>
